<svg width="500" height="304" viewBox="0 0 500 304" fill="none" xmlns="http://www.w3.org/2000/svg">
<g clip-path="url(#clip0_5_133)">
<path fill-rule="evenodd" clip-rule="evenodd" d="M362.304 100.918C385.334 124.07 395.747 147.1 396.115 148.08C396.661 149.314 396.944 150.65 396.944 152C396.944 153.35 396.661 154.686 396.115 155.92C395.747 156.9 385.334 179.93 362.304 203.083C331.557 233.708 292.724 250 249.972 250C207.219 250 168.387 233.708 137.639 203.083C114.609 179.93 104.197 156.9 103.829 155.92C103.283 154.686 103 153.35 103 152C103 150.65 103.283 149.314 103.829 148.08C104.197 147.1 114.609 124.07 137.639 100.918C168.387 70.2925 207.219 54 249.972 54C292.724 54 331.557 70.2925 362.304 100.918ZM250 242.65C300.065 242.65 340.65 202.065 340.65 152C340.65 101.935 300.065 61.35 250 61.35C199.935 61.35 159.35 101.935 159.35 152C159.35 202.065 199.935 242.65 250 242.65Z" fill="black"/>
<path fill-rule="evenodd" clip-rule="evenodd" d="M646.115 -3.92C645.747 -4.89999 635.334 -27.93 612.304 -51.0825C581.564 -81.7008 542.741 -97.9929 500 -98V-90.65C550.065 -90.65 590.65 -50.0646 590.65 0C590.65 50.0646 550.065 90.65 500 90.65C449.935 90.65 409.35 50.0646 409.35 0H353C353 1.35023 353.283 2.6855 353.829 3.92C354.197 4.9 364.609 27.93 387.639 51.0825C418.387 81.7075 457.219 98 499.972 98C542.724 98 581.557 81.7075 612.304 51.0825C635.334 27.93 645.747 4.9 646.115 3.92C646.661 2.6855 646.944 1.35023 646.944 0C646.944 -1.35022 646.661 -2.6855 646.115 -3.92Z" fill="black"/>
<path fill-rule="evenodd" clip-rule="evenodd" d="M-146.171 -3.92C-145.803 -4.89999 -135.391 -27.93 -112.361 -51.0825C-81.6198 -81.7008 -42.7976 -97.9929 -0.0561523 -98V-90.65C-50.1208 -90.65 -90.7061 -50.0646 -90.7061 0C-90.7061 50.0646 -50.1208 90.65 -0.0561523 90.65C50.0085 90.65 90.5938 50.0646 90.5938 0H146.944C146.944 1.35023 146.661 2.6855 146.114 3.92C145.747 4.9 135.334 27.93 112.304 51.0825C81.5569 81.7075 42.7244 98 -0.0281219 98C-42.7806 98 -81.6131 81.7075 -112.361 51.0825C-135.391 27.93 -145.803 4.9 -146.171 3.92C-146.718 2.6855 -147 1.35023 -147 0C-147 -1.35022 -146.718 -2.6855 -146.171 -3.92Z" fill="black"/>
<path fill-rule="evenodd" clip-rule="evenodd" d="M-146.171 -3.92C-145.803 -4.89999 -135.391 -27.93 -112.361 -51.0825C-81.6198 -81.7008 -42.7976 -97.9929 -0.0561523 -98V-90.65C-50.1208 -90.65 -90.7061 -50.0646 -90.7061 0C-90.7061 50.0646 -50.1208 90.65 -0.0561523 90.65C50.0085 90.65 90.5938 50.0646 90.5938 0H146.944C146.944 1.35023 146.661 2.6855 146.114 3.92C145.747 4.9 135.334 27.93 112.304 51.0825C81.5569 81.7075 42.7244 98 -0.0281219 98C-42.7806 98 -81.6131 81.7075 -112.361 51.0825C-135.391 27.93 -145.803 4.9 -146.171 3.92C-146.718 2.6855 -147 1.35023 -147 0C-147 -1.35022 -146.718 -2.6855 -146.171 -3.92Z" fill="black"/>
<path fill-rule="evenodd" clip-rule="evenodd" d="M-146.171 307.92C-145.803 308.9 -135.391 331.93 -112.361 355.082C-81.6198 385.701 -42.7976 401.993 -0.0561523 402V394.65C-50.1208 394.65 -90.7061 354.065 -90.7061 304C-90.7061 253.935 -50.1208 213.35 -0.0561523 213.35C50.0085 213.35 90.5938 253.935 90.5938 304H146.944C146.944 302.65 146.661 301.314 146.114 300.08C145.747 299.1 135.334 276.07 112.304 252.917C81.5569 222.292 42.7244 206 -0.0281219 206C-42.7806 206 -81.6131 222.292 -112.361 252.917C-135.391 276.07 -145.803 299.1 -146.171 300.08C-146.718 301.314 -147 302.65 -147 304C-147 305.35 -146.718 306.686 -146.171 307.92Z" fill="black"/>
<path fill-rule="evenodd" clip-rule="evenodd" d="M646.115 307.92C645.747 308.9 635.334 331.93 612.304 355.082C581.564 385.701 542.741 401.993 500 402V394.65C550.065 394.65 590.65 354.065 590.65 304C590.65 253.935 550.065 213.35 500 213.35C449.935 213.35 409.35 253.935 409.35 304H353C353 302.65 353.283 301.314 353.829 300.08C354.197 299.1 364.609 276.07 387.639 252.917C418.387 222.292 457.219 206 499.972 206C542.724 206 581.557 222.292 612.304 252.917C635.334 276.07 645.747 299.1 646.115 300.08C646.661 301.314 646.944 302.65 646.944 304C646.944 305.35 646.661 306.686 646.115 307.92Z" fill="black"/>
</g>
<defs>
<clipPath id="clip0_5_133">
<rect width="500" height="304" fill="white"/>
</clipPath>
</defs>
</svg>