<svg width="448" height="448" viewBox="0 0 448 448" fill="none" xmlns="http://www.w3.org/2000/svg">
<g clip-path="url(#clip0_3_12)">
<g filter="url(#filter0_d_3_12)">
<path fill-rule="evenodd" clip-rule="evenodd" d="M416 112L224 0L32 112L224 224L416 112ZM240 448L432 334.92V138L240 252V448ZM16 334.92V138L208 252V448L16 334.92ZM142.292 158.5C122.145 132.085 130.403 100.364 167.406 79C204.409 57.6364 259.352 52.8685 305.104 64.5C325.251 90.9152 316.993 122.636 279.99 144C242.987 165.364 188.044 170.132 142.292 158.5ZM186.695 132.864C207.41 144.824 240.8 144.959 261.226 133.167C281.651 121.374 281.416 102.096 260.701 90.1364C239.986 78.1764 206.596 78.0406 186.17 89.8333C165.745 101.626 165.98 120.904 186.695 132.864ZM201.496 124.318C189.037 117.125 188.896 105.593 201.181 98.5C213.466 91.4073 233.441 91.4885 245.9 98.6818C258.359 105.875 258.5 117.407 246.215 124.5C233.93 131.593 213.956 131.512 201.496 124.318Z" fill="#55814E"/>
</g>
</g>
<defs>
<filter id="filter0_d_3_12" x="12" y="0" width="424" height="456" filterUnits="userSpaceOnUse" color-interpolation-filters="sRGB">
<feFlood flood-opacity="0" result="BackgroundImageFix"/>
<feColorMatrix in="SourceAlpha" type="matrix" values="0 0 0 0 0 0 0 0 0 0 0 0 0 0 0 0 0 0 127 0" result="hardAlpha"/>
<feOffset dy="4"/>
<feGaussianBlur stdDeviation="2"/>
<feComposite in2="hardAlpha" operator="out"/>
<feColorMatrix type="matrix" values="0 0 0 0 0 0 0 0 0 0 0 0 0 0 0 0 0 0 0.25 0"/>
<feBlend mode="normal" in2="BackgroundImageFix" result="effect1_dropShadow_3_12"/>
<feBlend mode="normal" in="SourceGraphic" in2="effect1_dropShadow_3_12" result="shape"/>
</filter>
<clipPath id="clip0_3_12">
<rect width="448" height="448" fill="white"/>
</clipPath>
</defs>
</svg>
